<svg width="39" height="14" viewBox="0 0 39 14" fill="none" xmlns="http://www.w3.org/2000/svg">
<path fill-rule="evenodd" clip-rule="evenodd" d="M31.4953 0.575659L31.6176 0.435563C32.1477 -0.100515 32.9819 -0.14175 33.5588 0.311855L33.6973 0.435563L38.5398 5.94844L38.6007 6.01381L38.6818 6.1147L38.7872 6.28013L38.8658 6.44777L38.9179 6.60442L38.9604 6.82436L38.9706 6.99998L38.9665 7.11187L38.9408 7.29848L38.8974 7.46417L38.8328 7.62936L38.7559 7.77433L38.6475 7.93009L38.5398 8.05153L33.6973 13.5644C33.1231 14.1452 32.1919 14.1452 31.6176 13.5644C31.0875 13.0284 31.0467 12.1848 31.4953 11.6014L31.6176 11.4614L33.947 8.48709L1.47059 8.48709C0.658405 8.48709 7.36804e-08 7.82129 8.34744e-08 6.99998C9.32683e-08 6.17868 0.658405 5.51288 1.47059 5.51288L33.95 5.51288L31.6176 2.53865C31.0875 2.00257 31.0467 1.15904 31.4953 0.575659Z" fill="#4E5DE3"/>
</svg>
