<svg width="52" height="14" viewBox="0 0 52 14" fill="none" xmlns="http://www.w3.org/2000/svg">
<path fill-rule="evenodd" clip-rule="evenodd" d="M44.0188 0.575659L44.1412 0.435563C44.6713 -0.100515 45.5055 -0.14175 46.0824 0.311855L46.2209 0.435563L51.0634 5.94844L51.1243 6.01381L51.2054 6.1147L51.3108 6.28013L51.3894 6.44777L51.4414 6.60443L51.484 6.82436L51.4941 6.99998L51.49 7.11187L51.4643 7.29848L51.421 7.46417L51.3564 7.62936L51.2794 7.77433L51.171 7.93009L51.0634 8.05153L46.2209 13.5644C45.6466 14.1452 44.7155 14.1452 44.1412 13.5644C43.611 13.0284 43.5703 12.1848 44.0188 11.6014L44.1412 11.4614L46.4706 8.48709L1.47059 8.48707C0.658405 8.48707 7.36806e-08 7.82127 8.34745e-08 6.99997C9.32685e-08 6.17866 0.658405 5.51286 1.47059 5.51286L46.4735 5.51288L44.1412 2.53865C43.611 2.00257 43.5703 1.15904 44.0188 0.575659Z" fill="white"/>
</svg>
