<svg width="24" height="24" viewBox="0 0 24 24" fill="none" xmlns="http://www.w3.org/2000/svg">
<path fill-rule="evenodd" clip-rule="evenodd" d="M12 24C5.37258 24 4.69686e-07 18.6274 1.04907e-06 12C1.62846e-06 5.37258 5.37258 2.78888e-07 12 8.58275e-07C18.6274 1.43766e-06 24 5.37258 24 12C24 18.6274 18.6274 24 12 24ZM12 21.6C17.3019 21.6 21.6 17.3019 21.6 12C21.6 6.69807 17.3019 2.4 12 2.4C6.69807 2.4 2.4 6.69806 2.4 12C2.4 17.3019 6.69807 21.6 12 21.6ZM12 7.2C11.3373 7.2 10.8 6.66274 10.8 6C10.8 5.33726 11.3373 4.8 12 4.8C12.6627 4.8 13.2 5.33726 13.2 6C13.2 6.66274 12.6627 7.2 12 7.2ZM12 19.2C11.3373 19.2 10.8 18.6627 10.8 18L10.8 10.8C10.8 10.1373 11.3373 9.6 12 9.6C12.6627 9.6 13.2 10.1373 13.2 10.8L13.2 18C13.2 18.6627 12.6627 19.2 12 19.2Z" fill="#4E5DE3"/>
</svg>
