<svg width="34" height="34" viewBox="0 0 34 34" fill="none" xmlns="http://www.w3.org/2000/svg">
<g id="Iconly/Bold/Calling">
<g id="Group">
<g id="Calling">
<path id="Fill 1" d="M20.426 7.77744C19.7516 7.65286 19.1322 8.08323 19.0038 8.74153C18.8754 9.39983 19.3071 10.0426 19.9632 10.1714C21.9384 10.5565 23.4635 12.0854 23.8501 14.0674V14.0688C23.9602 14.6393 24.4624 15.0541 25.0409 15.0541C25.1185 15.0541 25.1961 15.047 25.2751 15.0329C25.9311 14.9012 26.3629 14.2599 26.2345 13.6002C25.6574 10.64 23.3789 8.35363 20.426 7.77744Z" fill="#4E5DE3"/>
<path id="Fill 3" d="M20.3377 2.84461C20.0217 2.79931 19.7043 2.89274 19.4517 3.09377C19.1921 3.29763 19.0299 3.59209 18.9946 3.92195C18.9198 4.58874 19.4009 5.19183 20.0669 5.26686C24.6592 5.77934 28.2287 9.3568 28.7451 13.9635C28.8142 14.5807 29.332 15.0465 29.9499 15.0465C29.9965 15.0465 30.0416 15.0436 30.0882 15.038C30.4113 15.0026 30.6991 14.8426 30.9023 14.5878C31.104 14.333 31.1957 14.0159 31.159 13.6917C30.5157 7.94394 26.0672 3.48309 20.3377 2.84461Z" fill="#4E5DE3"/>
</g>
</g>
<g id="Call">
<path id="Stroke 1" fill-rule="evenodd" clip-rule="evenodd" d="M15.6283 18.3775C21.2795 24.0272 22.5616 17.4912 26.1597 21.0868C29.6286 24.5547 31.6223 25.2495 27.2273 29.6434C26.6768 30.0858 23.179 35.4085 10.8866 23.1195C-1.40739 10.829 3.91229 7.32763 4.35483 6.77726C8.76052 2.37128 9.44335 4.37663 12.9122 7.84455C16.5104 11.4417 9.97714 12.7279 15.6283 18.3775Z" fill="#4E5DE3"/>
</g>
</g>
</svg>
