<svg width="34" height="34" viewBox="0 0 34 34" fill="none" xmlns="http://www.w3.org/2000/svg">
<g id="Iconly/Bold/Info Circle">
<g id="Info Circle">
<path id="Info Circle_2" fill-rule="evenodd" clip-rule="evenodd" d="M31.1665 17.0011C31.1665 24.8196 24.8198 31.1677 16.9998 31.1677C9.16567 31.1677 2.83317 24.8196 2.83317 17.0011C2.83317 9.17964 9.16567 2.83439 16.9998 2.83439C24.8198 2.83439 31.1665 9.17964 31.1665 17.0011ZM18.2465 22.3702C18.2465 23.0488 17.6798 23.6169 16.9998 23.6169C16.3198 23.6169 15.7673 23.0488 15.7673 22.3702L15.7673 16.1086C15.7673 15.4272 16.3198 14.8761 16.9998 14.8761C17.6798 14.8761 18.2465 15.4272 18.2465 16.1086L18.2465 22.3702ZM16.9857 10.3696C17.6798 10.3696 18.2323 10.9363 18.2323 11.6163C18.2323 12.2963 17.6798 12.8488 16.9998 12.8488C16.3057 12.8488 15.7532 12.2963 15.7532 11.6163C15.7532 10.9363 16.3057 10.3696 16.9857 10.3696Z" fill="#4E5DE3"/>
</g>
</g>
</svg>
