<svg width="42" height="42" viewBox="0 0 42 42" fill="none" xmlns="http://www.w3.org/2000/svg">
<path d="M39.6792 0.000976562H2.31804C1.03869 0.000976562 0 1.03761 0 2.31906V39.6808C0 40.9623 1.03869 42.0003 2.31804 42.0003H22.4322V25.7357H16.9593V19.3962H22.4322V14.7213C22.4322 9.2975 25.744 6.3425 30.5834 6.3425C32.9035 6.3425 34.893 6.51608 35.4732 6.59146V12.2608L32.1165 12.2622C29.4852 12.2622 28.9776 13.5132 28.9776 15.3479V19.3942H35.2554L34.4345 25.7329H28.9769V41.9982H39.6785C40.9592 41.9982 41.9986 40.9588 41.9986 39.6808V2.31767C41.9979 1.03761 40.9599 0.000976562 39.6792 0.000976562Z" fill="#4E5DE3"/>
</svg>
