<svg width="28" height="30" viewBox="0 0 28 30" fill="none" xmlns="http://www.w3.org/2000/svg">
<path d="M9.95358 27.4414V23.0966C9.95356 21.9957 10.8488 21.1012 11.9577 21.0943H16.0295C17.1434 21.0943 18.0463 21.9908 18.0463 23.0966V27.4288C18.0463 28.3837 18.8223 29.1597 19.7841 29.1667H22.562C23.8594 29.17 25.1049 28.6607 26.0234 27.751C26.942 26.8414 27.4583 25.6063 27.4583 24.3182V11.9767C27.4583 10.9362 26.9937 9.94922 26.1898 9.28167L16.7525 1.78859C15.1029 0.477964 12.7467 0.520302 11.1459 1.88933L1.91156 9.28167C1.06968 9.92954 0.566492 10.9194 0.541626 11.9767V24.3056C0.541626 26.9903 2.73375 29.1667 5.43787 29.1667H8.15237C8.61545 29.17 9.06073 28.9897 9.38938 28.6658C9.71803 28.3419 9.90285 27.9011 9.90284 27.4414H9.95358Z" fill="#4E5DE3"/>
</svg>
