<svg width="24" height="24" viewBox="0 0 24 24" fill="none" xmlns="http://www.w3.org/2000/svg">
<path d="M5.56698 6.76886H11.5274C12.0527 6.76886 12.4785 7.19463 12.4785 7.72C12.4785 8.24533 12.0528 8.67114 11.5274 8.67114H5.56698C5.04133 8.67114 4.61585 8.24538 4.61585 7.72C4.61589 7.19463 5.04166 6.76886 5.56698 6.76886Z" fill="#777777"/>
<path d="M5.57484 11.3659H13.8179C14.3432 11.3659 14.769 11.7917 14.769 12.317C14.769 12.8424 14.3433 13.2682 13.8179 13.2682H5.57484C5.04951 13.2682 4.6237 12.8424 4.6237 12.317C4.6237 11.7917 5.04951 11.3659 5.57484 11.3659Z" fill="#777777"/>
<path d="M0.951139 0.808472H17.786C18.3113 0.808472 18.7372 1.23424 18.7372 1.75961V10.7319H20.4174C22.3929 10.7319 24 12.3393 24 14.3144V19.609C24 21.5845 22.3929 23.1916 20.4174 23.1916C20.2558 23.1916 20.0966 23.1808 19.9409 23.1599H4.24833C1.90603 23.1599 0 21.2541 0 18.9116V1.75961C0 1.23424 0.425764 0.808472 0.951139 0.808472ZM18.7371 19.609C18.7371 20.4241 19.3208 21.1058 20.0921 21.2576H20.4174V21.2893C21.3441 21.2893 22.0977 20.5353 22.0977 19.609V14.3144C22.0977 13.388 21.3438 12.6341 20.4174 12.6341H18.7371V19.609H18.7371ZM1.90223 18.9115C1.90223 20.1832 2.97638 21.2576 4.24833 21.2576H17.2372C16.9801 20.764 16.8349 20.2031 16.8349 19.609V2.71071H1.90223V18.9115Z" fill="#777777"/>
<path d="M5.56698 15.678H11.5274C12.0527 15.678 12.4785 16.1037 12.4785 16.6291C12.4785 17.1544 12.0528 17.5803 11.5274 17.5803H5.56698C5.04133 17.5803 4.61585 17.1545 4.61585 16.6291C4.61589 16.1037 5.04166 15.678 5.56698 15.678Z" fill="#777777"/>
</svg>
