<svg width="12" height="12" viewBox="0 0 12 12" fill="none" xmlns="http://www.w3.org/2000/svg">
<path fill-rule="evenodd" clip-rule="evenodd" d="M4.53282 4.69923C4.69974 4.58795 4.8 4.40061 4.8 4.2V1.8C4.8 0.805887 3.99411 0 3 0H0.6C0.268629 0 0 0.268629 0 0.6C0 6.56468 5.43532 12 11.4 12C11.7314 12 12 11.7314 12 11.4V9C12 8.00589 11.1941 7.2 10.2 7.2H7.8C7.59939 7.2 7.41205 7.30026 7.30077 7.46718L6.15756 9.18199C4.91244 8.37689 3.82155 7.31351 2.98244 6.08938L2.81801 5.84244L4.53282 4.69923ZM8.12111 8.4H10.2C10.5314 8.4 10.8 8.66863 10.8 9V10.7792C9.63766 10.6988 8.50328 10.3879 7.44525 9.89494L7.20246 9.77797L8.12111 8.4ZM1.2208 1.2H3C3.33137 1.2 3.6 1.46863 3.6 1.8V3.87889L2.22203 4.79754C1.66129 3.67107 1.30742 2.45176 1.2208 1.2Z" fill="#4E5DE3"/>
</svg>
