<svg width="42" height="42" viewBox="0 0 42 42" fill="none" xmlns="http://www.w3.org/2000/svg">
<g clip-path="url(#clip0)">
<path d="M15.8555 13.9729C16.4477 12.723 16.1885 11.2269 15.2108 10.2484L9.55882 4.5972C8.28094 3.3176 6.20468 3.31145 4.91892 4.5972L4.6125 4.90363C4.54844 4.96769 4.54844 5.07152 4.6125 5.13558L14.9175 15.4406C14.9978 15.5208 15.1332 15.4974 15.1818 15.3949L15.8555 13.9729Z" fill="#4E5DE3"/>
<path d="M22.5496 28.731C21.8 29.0861 20.9019 28.9303 20.3146 28.3438L13.6513 21.6797C13.064 21.0932 12.909 20.1951 13.2641 19.4454L14.4367 16.9704C14.4664 16.9077 14.4534 16.8332 14.4044 16.7841L3.68562 6.0653C3.62115 6.00083 3.51559 6.00091 3.45194 6.0662C-1.34945 10.9892 -0.924006 18.2403 3.41184 22.5762L19.4189 38.5833C23.7788 42.943 31.0181 43.3323 35.8932 38.5789C35.9584 38.5153 35.9587 38.4102 35.8944 38.3456L25.2085 27.592C25.1594 27.5427 25.0847 27.5295 25.0219 27.5593L22.5496 28.731Z" fill="#4E5DE3"/>
<path d="M31.7458 26.7838C30.7681 25.8061 29.2721 25.5469 28.0221 26.1383L26.5938 26.8148C26.4915 26.8633 26.4679 26.9984 26.5477 27.0787L36.8225 37.4183C36.8865 37.4827 36.9907 37.4828 37.0549 37.4186L37.3978 37.0757C38.6774 35.7962 38.6774 33.7145 37.3978 32.4358L31.7458 26.7838Z" fill="#4E5DE3"/>
<path d="M20.9988 0C19.9154 0 19.0303 0.874009 19.0303 1.96849C19.0303 3.05362 19.9136 3.93698 20.9988 3.93698C30.4057 3.93698 38.059 11.5903 38.059 20.9972C38.059 21.0349 38.0623 21.0727 38.0688 21.1088C38.1131 21.5607 38.3124 21.9839 38.6356 22.3087C39.8933 23.5609 42.0304 22.6146 41.9952 20.9218C41.9555 9.41766 32.6352 0 20.9988 0Z" fill="#4E5DE3"/>
<path d="M28.2165 20.9972C28.2165 21.0349 28.2198 21.0727 28.2264 21.1087C28.2707 21.5607 28.47 21.9839 28.7931 22.3087C30.0367 23.5468 32.1535 22.6482 32.1535 20.9275C32.1162 14.7944 27.1395 9.84241 20.9988 9.84241C19.9154 9.84241 19.0303 10.7164 19.0303 11.8109C19.0303 12.896 19.9136 13.7794 20.9988 13.7794C24.9784 13.7794 28.2165 17.0176 28.2165 20.9972Z" fill="#4E5DE3"/>
</g>
<defs>
<clipPath id="clip0">
<rect width="42" height="42" fill="white"/>
</clipPath>
</defs>
</svg>
