<svg width="24" height="24" viewBox="0 0 24 24" fill="none" xmlns="http://www.w3.org/2000/svg">
<path d="M6 0C6.6154 0 7.12261 0.463248 7.19193 1.06005L7.2 1.2V16.8H22.8C23.4154 16.8 23.9226 17.2632 23.9919 17.8601L24 18C24 18.6154 23.5368 19.1226 22.9399 19.1919L22.8 19.2H19.2V22.8C19.2 23.4627 18.6627 24 18 24C17.3373 24 16.8 23.4627 16.8 22.8V19.2H6C5.3846 19.2 4.87739 18.7368 4.80807 18.1399L4.8 18V7.2H1.2C0.537258 7.2 0 6.66274 0 6C0 5.33726 0.537258 4.8 1.2 4.8H4.8V1.2C4.8 0.537258 5.33726 0 6 0ZM18 4.8C18.6627 4.8 19.2 5.33726 19.2 6V13.2C19.2 13.8627 18.6627 14.4 18 14.4C17.3373 14.4 16.8 13.8627 16.8 13.2V7.2H10.8C10.1373 7.2 9.6 6.66274 9.6 6C9.6 5.33726 10.1373 4.8 10.8 4.8H18Z" fill="#777777"/>
</svg>
