<svg width="20" height="20" viewBox="0 0 20 20" fill="none" xmlns="http://www.w3.org/2000/svg">
<path fill-rule="evenodd" clip-rule="evenodd" d="M8.54273 0C9.33161 0 10.0882 0.313382 10.646 0.871206L19.1288 9.35399C20.2904 10.5156 20.2904 12.3989 19.1288 13.5605L13.5605 19.1288C12.3989 20.2904 10.5156 20.2904 9.35399 19.1288L0.871206 10.646C0.313382 10.0882 0 9.33161 0 8.54273V2.97448C0 1.33172 1.33172 0 2.97448 0H8.54273ZM8.54273 2H2.97448C2.43629 2 2 2.43629 2 2.97448V8.54273C2 8.80118 2.10267 9.04905 2.28542 9.2318L10.7682 17.7146C11.1488 18.0951 11.7658 18.0951 12.1463 17.7146L17.7146 12.1463C18.0951 11.7658 18.0951 11.1488 17.7146 10.7682L9.2318 2.28542C9.04905 2.10267 8.80118 2 8.54273 2ZM6 4C7.10457 4 8 4.89543 8 6C8 7.10457 7.10457 8 6 8C4.89543 8 4 7.10457 4 6C4 4.89543 4.89543 4 6 4Z" fill="#4E5DE3"/>
</svg>
