<svg width="20" height="23" viewBox="0 0 20 23" fill="none" xmlns="http://www.w3.org/2000/svg">
<path fill-rule="evenodd" clip-rule="evenodd" d="M1.22892 9.68438C1.86988 9.67391 2.40628 10.1325 2.48896 10.7333L2.49983 10.8743L2.50436 11.1452C2.64057 15.0495 5.95405 18.1579 10 18.1579C10.2337 18.1579 10.4658 18.1476 10.6959 18.1271L10.3661 17.8033C9.87796 17.3306 9.87796 16.5641 10.3661 16.0914C10.8543 15.6187 11.6457 15.6187 12.1339 16.0914L14.6339 18.5124C15.122 18.9852 15.122 19.7517 14.6339 20.2244L12.1339 22.6454C11.6457 23.1182 10.8543 23.1182 10.3661 22.6454C9.87796 22.1727 9.87796 21.4062 10.3661 20.9335L10.7639 20.5511C10.5108 20.5696 10.256 20.5789 10 20.5789C4.71088 20.5789 0.36108 16.5956 0.0208338 11.5127L0.00525558 11.2065L0.000181438 10.9152C-0.0114611 10.2467 0.538666 9.69566 1.22892 9.68438ZM9.63389 0.354555C10.0845 0.79093 10.1192 1.47758 9.73787 1.95246L9.63389 2.0665L9.23646 2.44892C9.48951 2.43038 9.74416 2.42105 10 2.42105C15.5228 2.42105 20 6.75682 20 12.1053C20 12.7738 19.4404 13.3158 18.75 13.3158C18.0596 13.3158 17.5 12.7738 17.5 12.1053C17.5 8.09393 14.1421 4.84211 10 4.84211C9.76617 4.84211 9.5339 4.85243 9.30369 4.87291L9.63389 5.19666C10.122 5.6694 10.122 6.43586 9.63389 6.9086C9.18328 7.34498 8.47424 7.37855 7.98388 7.00931L7.86612 6.9086L5.36612 4.48755C4.91551 4.05117 4.88085 3.36453 5.26213 2.88965L5.36612 2.77561L7.86612 0.354555C8.35427 -0.118185 9.14573 -0.118185 9.63389 0.354555Z" fill="#4E5DE3"/>
</svg>
