<svg width="28" height="28" viewBox="0 0 28 28" fill="none" xmlns="http://www.w3.org/2000/svg">
<path d="M27.7235 10.8945C28.0922 10.5259 28.0922 9.92811 27.7235 9.55943L26.3067 8.14266C25.9863 7.82225 25.4833 7.77473 25.1086 8.02938L22.1296 10.054L24.142 7.05499C24.3933 6.68046 24.3446 6.18036 24.0256 5.86146L20.9524 2.78827C20.6687 2.50455 20.2367 2.4311 19.8753 2.60525L19.3439 2.86108L19.5984 2.29654C19.7597 1.93875 19.6828 1.51858 19.4053 1.24103L18.4406 0.276465C18.072 -0.092155 17.4742 -0.092155 17.1055 0.276465L9.6123 7.76964L20.2303 18.3877L27.7235 10.8945Z" fill="#4E5DE3"/>
<path d="M8.21702 9.16492L6.04785 11.3341C5.87081 11.5111 5.7713 11.7512 5.7713 12.0016C5.7713 12.252 5.87074 12.4921 6.04785 12.6691L8.1055 14.7268C8.50193 15.1232 8.69421 15.6703 8.63303 16.2277C8.57192 16.7848 8.26529 17.2773 7.79182 17.5792C1.74563 21.4333 1.18203 21.9969 0.996869 22.1822C-0.33229 23.5113 -0.33229 25.6739 0.996869 27.0031C2.32735 28.3336 4.4901 28.3309 5.81781 27.0031C6.0031 26.8179 6.56688 26.254 10.4207 20.2082C10.7218 19.7358 11.2142 19.4299 11.7715 19.3686C12.3306 19.3077 12.8776 19.499 13.2731 19.8944L15.3307 21.9521C15.6994 22.3207 16.2972 22.3207 16.6658 21.9521L18.8351 19.7828L8.21702 9.16492ZM4.40873 25.4783C3.88761 25.9994 3.04275 25.9994 2.5217 25.4783C2.00058 24.9572 2.00058 24.1123 2.5217 23.5912C3.04281 23.0701 3.88767 23.0701 4.40873 23.5912C4.92984 24.1123 4.92984 24.9572 4.40873 25.4783Z" fill="#4E5DE3"/>
</svg>
