<svg width="18" height="28" viewBox="0 0 18 28" fill="none" xmlns="http://www.w3.org/2000/svg">
<path d="M17.6201 10.7958C17.5692 10.706 17.4955 10.6313 17.4063 10.5794C17.3171 10.5274 17.2158 10.5 17.1126 10.5H9.47094L10.7521 0.711267C10.7658 0.58026 10.7351 0.448438 10.6648 0.337027C10.5945 0.225615 10.4888 0.141096 10.3646 0.0970788C10.2405 0.0530615 10.1051 0.0521069 9.98037 0.0943688C9.85561 0.136631 9.7487 0.21965 9.67685 0.330059L0.383771 16.6112C0.329428 16.6996 0.299644 16.8009 0.297489 16.9046C0.295335 17.0083 0.320888 17.1108 0.371514 17.2013C0.42214 17.2919 0.496008 17.3673 0.585499 17.4198C0.674991 17.4723 0.776867 17.5 0.880625 17.5H8.4081L7.39281 27.3035C7.38284 27.4341 7.41681 27.5642 7.48933 27.6733C7.56184 27.7823 7.66873 27.8639 7.793 27.9052C7.91726 27.9464 8.05176 27.945 8.17508 27.901C8.29841 27.857 8.40348 27.773 8.47358 27.6624L17.6131 11.3831C17.6661 11.2945 17.6947 11.1935 17.6959 11.0904C17.6971 10.9872 17.671 10.8855 17.6201 10.7958Z" fill="#4E5DE3"/>
</svg>
