<svg width="28" height="28" viewBox="0 0 28 28" fill="none" xmlns="http://www.w3.org/2000/svg">
<path d="M7.37996 11.2472L9.55286 13.42L13.4199 9.55304L11.247 7.38019C11.846 5.37147 11.3065 3.18599 9.8024 1.68192C8.25349 0.133006 5.99708 -0.395165 3.91376 0.303413C3.66149 0.388014 3.46593 0.589702 3.38914 0.844491C3.31236 1.09923 3.36393 1.37545 3.52745 1.58534L5.80956 4.51457L4.51434 5.80984L1.58511 3.52762C1.37522 3.36405 1.099 3.31254 0.844316 3.38932C0.589527 3.4661 0.387839 3.66161 0.303238 3.91394C-0.39545 5.99731 0.132722 8.25366 1.68169 9.80258C3.18576 11.3066 5.37124 11.8462 7.37996 11.2472Z" fill="#4E5DE3"/>
<path d="M20.6199 16.7529L18.4471 14.5801L14.5801 18.447L16.7529 20.6199C16.1539 22.6286 16.6935 24.8141 18.1975 26.3182C19.2944 27.4151 20.7458 28.0001 22.2395 28C22.8552 28 23.4781 27.9006 24.0862 27.6967C24.3385 27.6121 24.534 27.4104 24.6108 27.1556C24.6876 26.9008 24.636 26.6246 24.4725 26.4147L22.1904 23.4855L23.4856 22.1903L26.4148 24.4724C26.6247 24.6358 26.9008 24.6874 27.1556 24.6107C27.4104 24.5339 27.6121 24.3384 27.6967 24.0861C28.3954 22.0027 27.8672 19.7464 26.3183 18.1974C24.8141 16.6934 22.6287 16.154 20.6199 16.7529Z" fill="#4E5DE3"/>
<path d="M7.56685 17.7262C7.24649 17.4059 6.72712 17.4059 6.40676 17.7262L0.7996 23.3334C-0.266533 24.3995 -0.266533 26.1343 0.7996 27.2004C1.86573 28.2665 3.60047 28.2665 4.66661 27.2004L10.2738 21.5932C10.5941 21.2729 10.5941 20.7535 10.2738 20.4332L7.56685 17.7262Z" fill="#4E5DE3"/>
<path d="M21.6398 13.3209C22.0013 13.6824 22.482 13.8815 22.9932 13.8815C23.5045 13.8815 23.9852 13.6824 24.3467 13.3209L27.4403 10.2273C28.1865 9.48099 28.1865 8.26665 27.4403 7.52038L20.4797 0.55976C19.7334 -0.186505 18.5191 -0.186505 17.7728 0.55976L14.6792 3.65338C13.9329 4.39964 13.9329 5.61398 14.6792 6.36024L21.6398 13.3209Z" fill="#4E5DE3"/>
<path d="M15.646 9.64716L8.72693 16.5662L8.72704 16.5663L11.4338 19.2731L18.3529 12.354L15.646 9.64716Z" fill="#4E5DE3"/>
</svg>
