<svg width="67" height="69" viewBox="0 0 67 69" fill="none" xmlns="http://www.w3.org/2000/svg">
<path opacity="0.4" d="M38.1888 13.2619C36.3799 12.9277 34.7185 14.0822 34.3741 15.8479C34.0297 17.6137 35.1878 19.3377 36.9475 19.6833C42.2457 20.7162 46.3367 24.8174 47.3736 30.1337V30.1375C47.6688 31.6679 49.0161 32.7805 50.5677 32.7805C50.7758 32.7805 50.984 32.7615 51.1959 32.7236C52.9556 32.3704 54.1137 30.6502 53.7693 28.8806C52.2215 20.9402 46.1096 14.8075 38.1888 13.2619Z" fill="#4E5DE3"/>
<path opacity="0.4" d="M37.9524 0.0301331C37.1047 -0.0913834 36.2532 0.159244 35.5758 0.698474C34.8795 1.2453 34.4443 2.03516 34.3497 2.91995C34.1491 4.70852 35.4396 6.32621 37.2258 6.52747C49.5441 7.90213 59.1187 17.4981 60.5038 29.8549C60.6893 31.5105 62.0781 32.7599 63.7357 32.7599C63.8606 32.7599 63.9817 32.7523 64.1066 32.7371C64.9732 32.6421 65.7453 32.213 66.2902 31.5295C66.8314 30.846 67.0774 29.9954 66.979 29.1258C65.2533 13.7083 53.321 1.74276 37.9524 0.0301331Z" fill="#4E5DE3"/>
<path fill-rule="evenodd" clip-rule="evenodd" d="M27.4756 41.3371C39.6108 53.469 42.3637 39.4337 50.0903 47.1549C57.5393 54.6018 61.8206 56.0938 52.3828 65.529C51.2006 66.479 43.6896 77.909 17.2932 51.5199C-9.10649 25.1276 2.31682 17.6088 3.26713 16.427C12.7278 6.96569 14.1941 11.2719 21.6431 18.7188C29.3696 26.4433 15.3403 29.2052 27.4756 41.3371Z" fill="#2334D0"/>
</svg>
