<svg width="30" height="30" viewBox="0 0 30 30" fill="none" xmlns="http://www.w3.org/2000/svg">
<path fill-rule="evenodd" clip-rule="evenodd" d="M13.1646 2.98523C12.2149 2.98523 11.407 3.64514 11.1802 4.53459H18.8057C18.5789 3.64514 17.771 2.98523 16.8214 2.98523H13.1646ZM20.9601 4.53462H23.7665C26.743 4.53462 29.1667 6.98777 29.1667 10.0004C29.1667 10.0004 29.0817 11.2758 29.0533 13.0518C29.0505 13.1924 28.9825 13.3301 28.8705 13.4133C28.1887 13.9169 27.5651 14.3329 27.5084 14.3616C25.1555 15.9396 22.4214 17.05 19.5087 17.6023C19.3188 17.6396 19.1317 17.5406 19.0353 17.3713C18.2189 15.9568 16.6938 15.0358 14.993 15.0358C13.3034 15.0358 11.7642 15.9468 10.9237 17.3627C10.8259 17.5292 10.6416 17.6253 10.4531 17.5894C7.56449 17.0357 4.83037 15.9267 2.4917 14.3759L1.13102 13.4291C1.01763 13.3574 0.946764 13.2282 0.946764 13.0848C0.904243 12.3531 0.833374 10.0004 0.833374 10.0004C0.833374 6.98777 3.25709 4.53462 6.23357 4.53462H9.0258C9.29511 2.45446 11.0385 0.833374 13.1645 0.833374H16.8214C18.9474 0.833374 20.6908 2.45446 20.9601 4.53462ZM28.6848 16.1549L28.6281 16.1836C25.765 18.106 22.3208 19.3828 18.7065 19.9136C18.1962 19.9853 17.686 19.6553 17.5443 19.1389C17.2324 17.9625 16.2261 17.1878 15.0213 17.1878H15.0072H14.9788C13.774 17.1878 12.7677 17.9625 12.4559 19.1389C12.3141 19.6553 11.8039 19.9853 11.2936 19.9136C7.67932 19.3828 4.2351 18.106 1.372 16.1836C1.35783 16.1693 1.21609 16.0832 1.1027 16.1549C0.975135 16.2267 0.975135 16.3988 0.975135 16.3988L1.07435 23.7152C1.07435 26.7279 3.48389 29.1667 6.46038 29.1667H23.5256C26.5021 29.1667 28.9116 26.7279 28.9116 23.7152L29.025 16.3988C29.025 16.3988 29.025 16.2267 28.8974 16.1549C28.8266 16.1119 28.7415 16.1262 28.6848 16.1549ZM16.056 22.1659C16.056 22.7684 15.5883 23.2418 14.993 23.2418C14.4118 23.2418 13.9299 22.7684 13.9299 22.1659V20.3153C13.9299 19.7271 14.4118 19.2393 14.993 19.2393C15.5883 19.2393 16.056 19.7271 16.056 20.3153V22.1659Z" fill="#4E5DE3"/>
</svg>
