<svg width="47" height="48" viewBox="0 0 47 48" fill="none" xmlns="http://www.w3.org/2000/svg">
<path d="M47 24C47 10.7438 36.4801 0 23.5 0C10.5199 0 0 10.7438 0 24C0 37.2562 10.5199 48 23.5 48C23.6377 48 23.7754 48 23.9131 47.9906V29.3156H18.8643V23.3063H23.9131V18.8812C23.9131 13.7531 26.9791 10.9594 31.4588 10.9594C33.6068 10.9594 35.452 11.1188 35.9844 11.1938V16.5563H32.9C30.4674 16.5563 29.99 17.7375 29.99 19.4719V23.2969H35.8191L35.0572 29.3063H29.99V47.0719C39.8123 44.1938 47 34.9594 47 24Z" fill="white"/>
</svg>
