<svg width="38" height="38" viewBox="0 0 38 38" fill="none" xmlns="http://www.w3.org/2000/svg">
<path d="M38 19C38 8.50547 29.4945 0 19 0C8.50547 0 0 8.50547 0 19C0 29.4945 8.50547 38 19 38C19.1113 38 19.2227 38 19.334 37.9926V23.2082H15.252V18.4508H19.334V14.9477C19.334 10.8879 21.8129 8.67617 25.4348 8.67617C27.1715 8.67617 28.6633 8.80234 29.0938 8.86172V13.107H26.6C24.6332 13.107 24.2473 14.0422 24.2473 15.4152V18.4434H28.9602L28.3441 23.2008H24.2473V37.2652C32.1887 34.9867 38 27.6762 38 19Z" fill="white"/>
</svg>
