<svg width="47" height="47" viewBox="0 0 47 47" fill="none" xmlns="http://www.w3.org/2000/svg">
<path fill-rule="evenodd" clip-rule="evenodd" d="M23.3397 0.0693359C10.4495 0.0693359 0 10.5189 0 23.409C0 36.2992 10.4495 46.7487 23.3397 46.7487C36.2299 46.7487 46.6794 36.2992 46.6794 23.409C46.6794 10.5189 36.2299 0.0693359 23.3397 0.0693359ZM18.2084 11.0369C19.5362 10.9765 19.9604 10.9617 23.3411 10.9617H23.3372C26.7189 10.9617 27.1416 10.9765 28.4694 11.0369C29.7946 11.0976 30.6997 11.3074 31.4932 11.6152C32.3127 11.9329 33.0051 12.3582 33.6975 13.0506C34.39 13.7425 34.8153 14.437 35.1343 15.2557C35.4403 16.0472 35.6503 16.9517 35.7126 18.2769C35.7722 19.6047 35.7878 20.029 35.7878 23.4096C35.7878 26.7903 35.7722 27.2135 35.7126 28.5413C35.6503 29.866 35.4403 30.7708 35.1343 31.5625C34.8153 32.381 34.39 33.0755 33.6975 33.7674C33.0059 34.4598 32.3125 34.8861 31.494 35.2041C30.702 35.5119 29.7964 35.7217 28.4712 35.7824C27.1434 35.8428 26.7205 35.8576 23.3395 35.8576C19.9591 35.8576 19.5351 35.8428 18.2073 35.7824C16.8824 35.7217 15.9776 35.5119 15.1856 35.2041C14.3674 34.8861 13.6729 34.4598 12.9813 33.7674C12.2891 33.0755 11.8638 32.381 11.5456 31.5623C11.238 30.7708 11.0282 29.8662 10.9673 28.541C10.9071 27.2133 10.8921 26.7903 10.8921 23.4096C10.8921 20.029 10.9076 19.6044 10.967 18.2767C11.0267 16.952 11.2367 16.0472 11.5453 15.2554C11.8643 14.437 12.2896 13.7425 12.9821 13.0506C13.674 12.3584 14.3684 11.9331 15.1872 11.6152C15.9786 11.3074 16.8832 11.0976 18.2084 11.0369Z" fill="white"/>
<path fill-rule="evenodd" clip-rule="evenodd" d="M22.2243 13.2043C22.4411 13.2039 22.6744 13.2041 22.9261 13.2042L23.341 13.2043C26.6646 13.2043 27.0585 13.2162 28.371 13.2759C29.5847 13.3314 30.2434 13.5341 30.6822 13.7045C31.2631 13.9302 31.6772 14.1999 32.1126 14.6355C32.5483 15.0712 32.818 15.4862 33.0442 16.0671C33.2145 16.5053 33.4176 17.164 33.4728 18.3777C33.5325 19.6899 33.5455 20.0841 33.5455 23.4062C33.5455 26.7282 33.5325 27.1224 33.4728 28.4346C33.4173 29.6483 33.2145 30.307 33.0442 30.7453C32.8185 31.3262 32.5483 31.7398 32.1126 32.1752C31.677 32.6109 31.2633 32.8806 30.6822 33.1063C30.2439 33.2774 29.5847 33.4797 28.371 33.5352C27.0588 33.5948 26.6646 33.6078 23.341 33.6078C20.0171 33.6078 19.6232 33.5948 18.311 33.5352C17.0973 33.4792 16.4386 33.2764 15.9995 33.106C15.4186 32.8804 15.0037 32.6107 14.568 32.175C14.1323 31.7393 13.8626 31.3254 13.6365 30.7443C13.4661 30.306 13.263 29.6473 13.2078 28.4336C13.1482 27.1214 13.1362 26.7272 13.1362 23.4031C13.1362 20.0789 13.1482 19.6868 13.2078 18.3746C13.2633 17.1609 13.4661 16.5022 13.6365 16.0634C13.8621 15.4825 14.1323 15.0676 14.568 14.6319C15.0037 14.1962 15.4186 13.9265 15.9995 13.7004C16.4383 13.5292 17.0973 13.327 18.311 13.2712C19.4593 13.2193 19.9043 13.2038 22.2243 13.2012V13.2043ZM29.9857 15.2713C29.161 15.2713 28.4919 15.9396 28.4919 16.7645C28.4919 17.5892 29.161 18.2583 29.9857 18.2583C30.8104 18.2583 31.4795 17.5892 31.4795 16.7645C31.4795 15.9398 30.8104 15.2708 29.9857 15.2708V15.2713ZM16.9484 23.4096C16.9484 19.8794 19.8105 17.0172 23.3407 17.0171C26.8709 17.0171 29.7324 19.8793 29.7324 23.4096C29.7324 26.9399 26.8712 29.8009 23.3409 29.8009C19.8106 29.8009 16.9484 26.9399 16.9484 23.4096Z" fill="white"/>
<path d="M23.3407 19.2598C25.6322 19.2598 27.4901 21.1174 27.4901 23.4091C27.4901 25.7006 25.6322 27.5584 23.3407 27.5584C21.049 27.5584 19.1914 25.7006 19.1914 23.4091C19.1914 21.1174 21.049 19.2598 23.3407 19.2598Z" fill="white"/>
</svg>
