<svg width="42" height="42" viewBox="0 0 42 42" fill="none" xmlns="http://www.w3.org/2000/svg">
<g clip-path="url(#clip0)">
<path d="M30.4006 13.8883C30.2074 13.3647 29.8991 12.8907 29.4986 12.5017C29.1095 12.1012 28.6359 11.7929 28.112 11.5997C27.6871 11.4347 27.0488 11.2383 25.8732 11.1848C24.6013 11.1268 24.22 11.1143 21.0003 11.1143C17.7803 11.1143 17.3989 11.1264 16.1275 11.1844C14.9518 11.2383 14.3132 11.4347 13.8886 11.5997C13.3647 11.7929 12.8907 12.1012 12.5021 12.5017C12.1015 12.8907 11.7933 13.3643 11.5997 13.8883C11.4347 14.3132 11.2383 14.9518 11.1848 16.1275C11.1268 17.3989 11.1143 17.7803 11.1143 21.0003C11.1143 24.22 11.1268 24.6013 11.1848 25.8732C11.2383 27.0488 11.4347 27.6871 11.5997 28.112C11.7933 28.6359 12.1012 29.1095 12.5017 29.4986C12.8907 29.8991 13.3643 30.2074 13.8883 30.4006C14.3132 30.5659 14.9518 30.7623 16.1275 30.8159C17.3989 30.8739 17.7799 30.886 21 30.886C24.2204 30.886 24.6017 30.8739 25.8728 30.8159C27.0485 30.7623 27.6871 30.5659 28.112 30.4006C29.1637 29.9949 29.9949 29.1637 30.4006 28.112C30.5656 27.6871 30.762 27.0488 30.8159 25.8732C30.8739 24.6013 30.886 24.22 30.886 21.0003C30.886 17.7803 30.8739 17.3989 30.8159 16.1275C30.7623 14.9518 30.5659 14.3132 30.4006 13.8883ZM21.0003 27.1921C17.5803 27.1921 14.8079 24.42 14.8079 21C14.8079 17.58 17.5803 14.8079 21.0003 14.8079C24.42 14.8079 27.1924 17.58 27.1924 21C27.1924 24.42 24.42 27.1921 21.0003 27.1921ZM27.4372 16.0102C26.638 16.0102 25.9901 15.3623 25.9901 14.5631C25.9901 13.7639 26.638 13.116 27.4372 13.116C28.2364 13.116 28.8843 13.7639 28.8843 14.5631C28.884 15.3623 28.2364 16.0102 27.4372 16.0102Z" fill="#4E5DE3"/>
<path d="M25.0195 21C25.0195 23.22 23.22 25.0195 21 25.0195C18.78 25.0195 16.9805 23.22 16.9805 21C16.9805 18.78 18.78 16.9805 21 16.9805C23.22 16.9805 25.0195 18.78 25.0195 21Z" fill="#4E5DE3"/>
<path d="M38.9709 0H3.02907C1.35608 0 0 1.35608 0 3.02907V38.9709C0 40.6439 1.35608 42 3.02907 42H38.9709C40.6439 42 42 40.6439 42 38.9709V3.02907C42 1.35608 40.6439 0 38.9709 0V0ZM32.9859 25.9715C32.9275 27.2552 32.7234 28.1316 32.4254 28.8987C31.799 30.5185 30.5185 31.799 28.8987 32.4254C28.1319 32.7234 27.2552 32.9272 25.9719 32.9859C24.686 33.0445 24.2752 33.0586 21.0003 33.0586C17.7252 33.0586 17.3147 33.0445 16.0285 32.9859C14.7451 32.9272 13.8684 32.7234 13.1016 32.4254C12.2967 32.1226 11.568 31.648 10.9656 31.0344C10.3523 30.4323 9.87772 29.7033 9.57491 28.8987C9.2769 28.1319 9.07278 27.2552 9.01447 25.9719C8.95518 24.6856 8.94141 24.2748 8.94141 21C8.94141 17.7252 8.95518 17.3144 9.01414 16.0285C9.07246 14.7448 9.27626 13.8684 9.57426 13.1013C9.87708 12.2967 10.352 11.5677 10.9656 10.9656C11.5677 10.352 12.2967 9.8774 13.1013 9.57458C13.8684 9.27658 14.7448 9.07278 16.0285 9.01414C17.3144 8.95551 17.7252 8.94141 21 8.94141C24.2748 8.94141 24.6856 8.95551 25.9715 9.01447C27.2552 9.07278 28.1316 9.27658 28.8987 9.57426C29.7033 9.87708 30.4323 10.352 31.0347 10.9656C31.648 11.568 32.1229 12.2967 32.4254 13.1013C32.7237 13.8684 32.9275 14.7448 32.9862 16.0285C33.0448 17.3144 33.0586 17.7252 33.0586 21C33.0586 24.2748 33.0448 24.6856 32.9859 25.9715Z" fill="#4E5DE3"/>
</g>
<defs>
<clipPath id="clip0">
<rect width="42" height="42" fill="white"/>
</clipPath>
</defs>
</svg>
