<svg width="42" height="42" viewBox="0 0 42 42" fill="none" xmlns="http://www.w3.org/2000/svg">
<g clip-path="url(#clip0)">
<path d="M0.948242 12.5956L4.665 16.2825V11.0534L0.948242 12.5956Z" fill="#4E5DE3"/>
<path d="M41.0517 12.5956L37.335 11.0534V16.2825L41.0517 12.5956Z" fill="#4E5DE3"/>
<path d="M34.874 2.64182C34.874 1.79288 34.1834 1.10217 33.3345 1.10217H8.66554C7.8166 1.10217 7.12598 1.79288 7.12598 2.64182V18.7236L15.1251 26.6586L20.2046 22.3551C20.6636 21.9662 21.3365 21.9662 21.7955 22.3551L26.875 26.6586L34.8741 18.7236V2.64182H34.874ZM27.852 16.1789H14.148C13.4685 16.1789 12.9175 15.628 12.9175 14.9485C12.9175 14.2689 13.4685 13.718 14.148 13.718H27.852C28.5315 13.718 29.0825 14.2689 29.0825 14.9485C29.0825 15.628 28.5315 16.1789 27.852 16.1789ZM27.852 9.57871H14.148C13.4685 9.57871 12.9175 9.02779 12.9175 8.34824C12.9175 7.66869 13.4685 7.11777 14.148 7.11777H27.852C28.5315 7.11777 29.0825 7.66869 29.0825 8.34824C29.0825 9.02779 28.5315 9.57871 27.852 9.57871Z" fill="#4E5DE3"/>
<path d="M0 15.1213V39.4732L13.2403 28.2555L0 15.1213Z" fill="#4E5DE3"/>
<path d="M28.7598 28.2555L42.0001 39.4732V15.1213L28.7598 28.2555Z" fill="#4E5DE3"/>
<path d="M21.0005 24.9067L2.12598 40.8978H39.8751L21.0005 24.9067Z" fill="#4E5DE3"/>
</g>
<defs>
<clipPath id="clip0">
<rect width="42" height="42" fill="white"/>
</clipPath>
</defs>
</svg>
