<svg width="12" height="14" viewBox="0 0 12 14" fill="none" xmlns="http://www.w3.org/2000/svg">
<path fill-rule="evenodd" clip-rule="evenodd" d="M6 0C9.31371 0 12 2.79001 12 6.23166C12 8.5091 10.1851 10.9171 6.63217 13.5402L6 14L5.61853 13.7236C1.90028 11.0291 0 8.56206 0 6.23166C0 2.79001 2.68629 0 6 0ZM6 1.38481C3.42267 1.38481 1.33333 3.55482 1.33333 6.23166C1.33333 7.9134 2.86448 9.96551 6 12.3073C9.13552 9.96551 10.6667 7.9134 10.6667 6.23166C10.6667 3.55482 8.57733 1.38481 6 1.38481ZM6 2.8C7.47276 2.8 8.66667 4.0536 8.66667 5.6C8.66667 7.1464 7.47276 8.4 6 8.4C4.52724 8.4 3.33333 7.1464 3.33333 5.6C3.33333 4.0536 4.52724 2.8 6 2.8ZM6 4.2C5.26362 4.2 4.66667 4.8268 4.66667 5.6C4.66667 6.3732 5.26362 7 6 7C6.73638 7 7.33333 6.3732 7.33333 5.6C7.33333 4.8268 6.73638 4.2 6 4.2Z" fill="#4E5DE3"/>
</svg>
