<svg width="42" height="42" viewBox="0 0 42 42" fill="none" xmlns="http://www.w3.org/2000/svg">
<g clip-path="url(#clip0)">
<path d="M21 0C13.762 0 7.875 5.88697 7.875 13.125C7.875 20.1075 19.7978 35.7455 20.3053 36.407C20.4716 36.624 20.727 36.75 21 36.75C21.273 36.75 21.5285 36.624 21.6947 36.407C22.2023 35.7455 34.125 20.1075 34.125 13.125C34.125 5.88697 28.238 0 21 0ZM21 19.25C17.6225 19.25 14.875 16.5026 14.875 13.125C14.875 9.74745 17.6224 6.99997 21 6.99997C24.3776 6.99997 27.125 9.74745 27.125 13.125C27.125 16.5026 24.3775 19.25 21 19.25Z" fill="#4E5DE3"/>
<path d="M40.978 40.6402L33.978 30.1402C33.8153 29.897 33.5423 29.75 33.25 29.75H28.5162C25.9804 33.6508 23.6337 36.7552 23.0842 37.471C22.5924 38.1133 21.812 38.5 20.9999 38.5C20.1879 38.5 19.4075 38.1133 18.914 37.4693C18.3662 36.7536 16.0177 33.649 13.4837 29.7501H8.74995C8.45767 29.7501 8.18468 29.8971 8.02192 30.1403L1.02195 40.6403C0.843453 40.9081 0.825981 41.2546 0.978231 41.5398C1.13048 41.8216 1.4262 42.0001 1.74998 42.0001H40.25C40.5737 42.0001 40.8694 41.8216 41.02 41.5381C41.174 41.2528 41.1583 40.908 40.978 40.6402Z" fill="#4E5DE3"/>
</g>
<defs>
<clipPath id="clip0">
<rect width="42" height="42" fill="white"/>
</clipPath>
</defs>
</svg>
