<svg width="52" height="66" viewBox="0 0 52 66" fill="none" xmlns="http://www.w3.org/2000/svg">
<ellipse cx="25.5" cy="62.5" rx="10.5" ry="3.5" fill="#3844AF" fill-opacity="0.7"/>
<path d="M15.5137 26.3426C15.5137 20.7799 20.0232 16.2704 25.5858 16.2704C31.1485 16.2704 35.658 20.7799 35.658 26.3426C35.658 31.9052 31.1485 36.4148 25.5858 36.4148C20.0232 36.4148 15.5137 31.9052 15.5137 26.3426Z" fill="url(#paint0_radial)"/>
<path fill-rule="evenodd" clip-rule="evenodd" d="M0.0911219 22.8635C1.15611 9.9434 11.9528 0 24.9169 0H26.2554C39.2194 0 50.0161 9.9434 51.081 22.8635C51.6543 29.8198 49.5057 36.7272 45.0873 42.1305L30.2331 60.297C27.8313 63.2343 23.341 63.2343 20.9392 60.297L6.08478 42.1305C1.6665 36.7272 -0.482279 29.8198 0.0911219 22.8635ZM25.586 11.6217C17.4559 11.6217 10.8651 18.2125 10.8651 26.3426C10.8651 34.4729 17.4559 41.0635 25.586 41.0635C33.7162 41.0635 40.3069 34.4729 40.3069 26.3426C40.3069 18.2125 33.7162 11.6217 25.586 11.6217Z" fill="#3844AF"/>
<defs>
<radialGradient id="paint0_radial" cx="0" cy="0" r="1" gradientUnits="userSpaceOnUse" gradientTransform="translate(33 33.5) rotate(-137.911) scale(20.8866)">
<stop stop-color="#A4ABEC"/>
<stop offset="1" stop-color="#3844AF"/>
</radialGradient>
</defs>
</svg>
