<svg width="17" height="17" viewBox="0 0 17 17" fill="none" xmlns="http://www.w3.org/2000/svg">
<path fill-rule="evenodd" clip-rule="evenodd" d="M7.65 0C11.875 0 15.3 3.42502 15.3 7.65C15.3 9.45606 14.6741 11.1159 13.6275 12.4246L16.751 15.549C17.083 15.8809 17.083 16.4191 16.751 16.751C16.4446 17.0575 15.9625 17.081 15.629 16.8218L15.549 16.751L12.4246 13.6275C11.1159 14.6741 9.45606 15.3 7.65 15.3C3.42502 15.3 0 11.875 0 7.65C0 3.42502 3.42502 0 7.65 0ZM7.65 1.7C4.36391 1.7 1.7 4.36391 1.7 7.65C1.7 10.9361 4.36391 13.6 7.65 13.6C10.9361 13.6 13.6 10.9361 13.6 7.65C13.6 4.36391 10.9361 1.7 7.65 1.7Z" fill="#4267B2"/>
</svg>
