<svg width="30" height="28" viewBox="0 0 30 28" fill="none" xmlns="http://www.w3.org/2000/svg">
<g clip-path="url(#clip0)">
<path d="M13.6984 19.6665C13.6923 19.4876 13.6523 19.3114 13.5801 19.1476L13.2271 18.345C13.1118 18.2542 6.7535 13.2466 5.71799 12.4311C5.27573 13.0403 4.99062 13.7493 4.8879 14.4951L4.23313 19.2478L0.190702 26.2081C-0.199408 26.8797 0.0289276 27.7404 0.700576 28.1305C1.37187 28.5204 2.23283 28.2925 2.62306 27.6207L6.80506 20.4201C6.89717 20.2615 6.9574 20.0864 6.9823 19.9046L7.66045 14.954L8.99742 15.7136L10.8966 20.032L11.1298 26.9617C11.1437 27.376 11.3362 27.7414 11.63 27.989C11.5105 27.3857 11.7268 26.7514 12.2082 26.3493L13.8766 24.9559L13.6984 19.6665Z" fill="#4E5DE3"/>
<path d="M15.7142 5.32971C17.1859 5.32971 18.379 4.13661 18.379 2.66486C18.379 1.1931 17.1859 0 15.7142 0C14.2424 0 13.0493 1.1931 13.0493 2.66486C13.0493 4.13661 14.2424 5.32971 15.7142 5.32971Z" fill="#4E5DE3"/>
<path d="M14.0559 18.9976L14.0989 19.1839C14.2377 19.7848 14.8186 20.178 15.4294 20.0794L14.0559 18.9976Z" fill="#4E5DE3"/>
<path d="M1.33072 5.83304C1.03952 5.60364 0.617476 5.6538 0.387969 5.94507C0.158579 6.23639 0.610173 6.85956 0.901437 7.08895L1.33053 7.57873L2.29321 6.62787L1.33072 5.83304Z" fill="#4E5DE3"/>
<path d="M15.5929 8.83778C16.084 7.97336 15.7814 6.87446 14.9169 6.38333L12.1257 4.79753C11.5084 4.44691 10.7719 4.50111 10.2222 4.87534L11.7553 5.71456L6.86861 4.36101C6.48266 4.25414 6.06085 4.34765 5.75558 4.61214L2.11035 7.77127C1.60593 8.20849 1.55278 8.97143 1.98865 9.47444C2.4223 9.97482 3.18805 10.0327 3.69177 9.59614L6.84787 6.86092L11.2731 8.08662L8.21267 8.04062L7.3953 9.47931L12.3514 13.3826L12.7116 12.431L13.0431 13.9273L15.798 16.0969C14.9617 12.475 15.2495 13.7073 14.537 10.6962L15.5929 8.83778Z" fill="#4E5DE3"/>
<path d="M29.8265 27.1074L24.4019 20.7878C23.5083 19.7467 21.944 19.6168 20.8911 20.4962C20.7064 20.6505 20.5207 20.8056 20.3405 20.9561L5.67788 9.40845L4.64478 10.3037L19.2874 21.8357C19.0528 22.0316 13.1272 26.9809 12.8967 27.1733C12.4507 27.5461 12.7073 28.2856 13.3001 28.2856H29.285C29.8948 28.2856 30.2237 27.5701 29.8265 27.1074Z" fill="#4E5DE3"/>
</g>
<defs>
<clipPath id="clip0">
<rect width="30" height="28" fill="white"/>
</clipPath>
</defs>
</svg>
