<svg width="28" height="28" viewBox="0 0 28 28" fill="none" xmlns="http://www.w3.org/2000/svg">
<path d="M13.8052 15.4655C13.8622 15.4655 13.9197 15.4653 13.9767 15.4649C18.0957 15.4376 22.1332 14.4252 25.7646 12.5236L25.3939 14.059L26.9887 14.444L27.998 10.2635L23.8175 9.25421L23.4325 10.849L24.798 11.1787C17.373 14.9897 8.54698 14.7171 1.31002 10.3398L0.862018 10.0689L0.0129395 11.4727L0.460885 11.7436C4.48933 14.1802 9.09954 15.4655 13.8052 15.4655Z" fill="#4E5DE3"/>
<path d="M25.5391 18.1536H2.46094C1.10398 18.1536 0 19.2576 0 20.6146V25.5364C0 26.8934 1.10398 27.9974 2.46094 27.9974H25.5391C26.896 27.9974 28 26.8934 28 25.5364V20.6146C28 19.2576 26.896 18.1536 25.5391 18.1536ZM4.97656 24.7161H3.33594V21.4349H4.97656V24.7161ZM8.25781 24.7161H6.61719V21.4349H8.25781V24.7161ZM11.5391 24.7161H9.89844V21.4349H11.5391V24.7161ZM14.8203 24.7161H13.1797V21.4349H14.8203V24.7161ZM18.1016 24.7161H16.4609V21.4349H18.1016V24.7161ZM21.3828 24.7161H19.7422V21.4349H21.3828V24.7161ZM24.6641 24.7161H23.0234V21.4349H24.6641V24.7161Z" fill="#4E5DE3"/>
<path d="M5.79688 7.84505C7.15384 7.84505 8.25781 6.74107 8.25781 5.38411C8.25781 5.04625 8.16129 4.43074 7.32676 2.99208C6.90523 2.26539 6.48933 1.66197 6.47183 1.63665L5.79688 0.659546L5.12192 1.63665C5.10442 1.66197 4.68852 2.26539 4.26699 2.99208C3.43246 4.43074 3.33594 5.04625 3.33594 5.38411C3.33594 6.74107 4.43991 7.84505 5.79688 7.84505Z" fill="#4E5DE3"/>
<path d="M22.2031 7.84505C23.5601 7.84505 24.6641 6.74107 24.6641 5.38411C24.6641 5.04625 24.5675 4.43074 23.733 2.99208C23.3115 2.26539 22.8956 1.66197 22.8781 1.63665L22.2031 0.659546L21.5282 1.6367C21.5107 1.66202 21.0948 2.26544 20.6732 2.99213C19.8387 4.43074 19.7422 5.04625 19.7422 5.38411C19.7422 6.74107 20.8462 7.84505 22.2031 7.84505Z" fill="#4E5DE3"/>
<path d="M14 11.1263C16.2616 11.1263 18.1016 9.28632 18.1016 7.02472C18.1016 6.09301 17.5186 4.78089 16.3195 3.0135C15.4858 1.78478 14.6643 0.798218 14.6297 0.75682L14 0.00262451L13.3703 0.75682C13.3358 0.798218 12.5142 1.78484 11.6806 3.0135C10.4814 4.78095 9.89844 6.09301 9.89844 7.02472C9.89844 9.28632 11.7384 11.1263 14 11.1263Z" fill="#4E5DE3"/>
</svg>
