<svg width="28" height="28" viewBox="0 0 28 28" fill="none" xmlns="http://www.w3.org/2000/svg">
<g clip-path="url(#clip0)">
<path d="M27.6456 13.2243L14.8526 0.43065C14.4006 -0.0219679 13.5998 -0.0219679 13.1478 0.43065L0.352963 13.2243C-0.11798 13.6952 -0.11798 14.4587 0.352963 14.9297C0.823905 15.4006 1.58743 15.419 2.05898 14.9474L3.55061 13.4729H24.4504L25.9408 14.9474C26.1772 15.1826 26.4851 15.2907 26.7935 15.2907C27.102 15.2907 27.4111 15.1685 27.6462 14.9327C28.1178 14.4642 28.1178 13.6952 27.6456 13.2243ZM5.9609 10.9936L9.365 7.59068L12.7673 10.9936H5.9609ZM11.0704 5.91826L13.9993 2.98999L16.9282 5.91826L13.9993 8.84653L11.0704 5.91826ZM15.2319 10.9936L18.633 7.59007L22.0352 10.9936H15.2319Z" fill="#4E5DE3"/>
<path d="M4.03198 26.5945C4.03198 27.3239 4.64036 27.909 5.36846 27.909H22.6308C23.3596 27.909 23.9508 27.3239 23.9508 26.5945V14.6628H4.03198V26.5945ZM14.9003 18.525C14.9003 18.0534 15.2845 17.6692 15.7555 17.6692H17.6783C18.1493 17.6692 18.5329 18.0528 18.5329 18.525V22.824C18.5329 23.2967 18.1493 23.6803 17.6783 23.6803H15.7555C15.2845 23.6803 14.9003 23.2973 14.9003 22.824V18.525ZM9.48233 18.5256C9.48233 18.0541 9.86593 17.6698 10.3375 17.6698H12.2261C12.6977 17.6698 13.0813 18.0534 13.0813 18.5256V22.824C13.0813 23.2967 12.6977 23.6803 12.2261 23.6803H10.3375C9.86593 23.6803 9.48233 23.2973 9.48233 22.824V18.5256Z" fill="#4E5DE3"/>
</g>
<defs>
<clipPath id="clip0">
<rect width="28" height="28" fill="white"/>
</clipPath>
</defs>
</svg>
