<svg width="28" height="28" viewBox="0 0 28 28" fill="none" xmlns="http://www.w3.org/2000/svg">
<path d="M25.4179 17.9969C26.8417 17.9966 28 16.838 28 15.4142C28 14.3793 27.45 13.4328 26.5973 12.9037C26.65 12.6809 26.6771 12.4514 26.6771 12.2205C26.6771 11.4325 26.3702 10.6916 25.8129 10.1342C25.2556 9.57688 24.5147 9.27002 23.7266 9.27002C23.4957 9.27002 23.2663 9.29709 23.0435 9.34981C22.5143 8.49723 21.5678 7.94719 20.5329 7.94719C19.4981 7.94719 18.5516 8.49723 18.0224 9.34981C17.7996 9.29704 17.5702 9.27002 17.3393 9.27002C16.5513 9.27002 15.8104 9.57693 15.2528 10.1342C14.5207 10.8665 14.2405 11.9253 14.47 12.9028C13.6165 13.4319 13.0659 14.379 13.0659 15.4162C13.0659 16.1062 13.3347 16.7548 13.8226 17.2426C14.3104 17.7303 14.9588 17.9989 15.6487 17.9989H15.6492L19.6189 17.9981L16.5746 21.0021V19.5847L15.6495 19.5849H15.6486C14.5353 19.5849 13.4886 19.1514 12.7012 18.3642C12.0747 17.7378 11.6731 16.9469 11.5346 16.0892V17.9236L8.65266 15.0416L11.4972 15.041C11.5878 13.9756 12.0591 12.9697 12.8073 12.2143C12.8127 11.0273 13.2817 9.86278 14.1312 9.01299C14.9881 8.15642 16.1266 7.68469 17.3373 7.68414C18.1803 6.85136 19.3336 6.3613 20.5329 6.3613C20.5589 6.3613 20.5848 6.36284 20.6107 6.36327C20.6107 6.35682 20.6112 6.35042 20.6112 6.34402C20.6112 5.20231 20.1666 4.12891 19.3593 3.32155C18.552 2.5142 17.4786 2.06959 16.3368 2.06959C15.9175 2.06959 15.5016 2.13106 15.104 2.25023C14.3688 0.891516 12.9262 0 11.3404 0C9.75466 0 8.31217 0.891516 7.57684 2.25017C7.17921 2.13106 6.76331 2.06959 6.34402 2.06959C5.20242 2.06959 4.12902 2.5142 3.32134 3.32161C2.19964 4.44358 1.81037 6.0947 2.25209 7.57591C0.892281 8.31097 0 9.75439 0 11.3437C0 12.3319 0.384891 13.2608 1.08369 13.9595C1.78232 14.6579 2.71108 15.0426 3.69901 15.0426H3.69977L6.3426 15.0421L11.5348 20.2343V28H16.5747V23.3069L21.9323 17.9976L25.4179 17.9969Z" fill="#4E5DE3"/>
</svg>
