<svg width="28" height="28" viewBox="0 0 28 28" fill="none" xmlns="http://www.w3.org/2000/svg">
<path d="M13.951 12.304C12.1308 12.304 10.7683 13.9327 10.7683 15.6945C10.7683 17.5411 12.1961 18.9756 13.951 18.9756C15.7036 18.9756 17.2321 17.4342 17.2321 15.5851C17.232 13.8266 15.7743 12.304 13.951 12.304Z" fill="#4E5DE3"/>
<path d="M25.9467 17.7752C25.0257 17.2435 21.7459 15.8915 18.82 15.0649C18.8386 15.2382 18.8726 15.407 18.8726 15.5851C18.8726 17.5883 17.6657 19.418 15.9445 20.1854C16.5535 20.7784 17.2062 21.3734 17.8665 21.9398C16.1487 23.0069 14.1014 23.3471 12.167 22.8333C11.7304 22.7212 11.281 22.9783 11.164 23.4165C11.0479 23.8539 11.309 24.3032 11.7472 24.4194C14.2766 25.0897 16.8887 24.6331 19.1599 23.0161C19.6418 23.4039 20.1016 23.764 20.5049 24.0643C17.3337 26.5226 12.9703 27.0419 9.36094 25.2749C8.95401 25.0738 8.46297 25.2436 8.26353 25.6497C8.06408 26.0567 8.23148 26.5477 8.63841 26.7472C12.9325 28.8536 18.1102 28.3186 21.9461 25.0296C24.0002 26.1425 26.3866 25.3274 27.4487 23.487C28.5789 21.5285 27.9052 18.9062 25.9467 17.7752Z" fill="#4E5DE3"/>
<path d="M26.2269 14.7441C25.8963 9.85547 22.6292 5.63868 18.0433 4.01347C17.9952 1.79353 16.2805 0 14.0493 0C11.788 0 9.948 1.83996 9.948 4.10135C9.948 5.16262 10.4127 8.67717 11.1551 11.6242C11.9695 11.0274 12.866 10.6635 13.9509 10.6635C15.037 10.6635 16.0327 11.0282 16.8476 11.6263C17.0572 10.7954 17.2469 9.92476 17.4073 9.06945C19.1949 10.0206 20.537 11.6714 21.0754 13.6466C21.1969 14.0934 21.6583 14.3403 22.0823 14.2225C22.5197 14.1031 22.7776 13.653 22.6582 13.2156C21.9534 10.628 20.1163 8.50267 17.6933 7.39152C17.7874 6.78394 17.8653 6.21519 17.9234 5.71857C21.6715 7.23189 24.3137 10.7718 24.5895 14.8546C24.6192 15.288 24.9797 15.6195 25.4074 15.6195C25.4258 15.6195 25.445 15.6187 25.4634 15.618C25.9154 15.5875 26.2574 15.1958 26.2269 14.7441Z" fill="#4E5DE3"/>
<path d="M9.12762 15.6945C9.12762 15.5175 9.16158 15.3497 9.1799 15.1774C8.35636 15.4093 7.51614 15.6697 6.68932 15.9605C6.61002 13.7553 7.43799 11.773 8.80961 10.3895C9.12844 10.0675 9.12686 9.54841 8.8048 9.22958C8.48439 8.91234 7.96529 8.91234 7.64488 9.2344C5.84084 11.0539 4.82403 13.6444 5.09873 16.5467C4.51401 16.7736 3.96823 16.9939 3.50234 17.1952C2.90696 12.9658 4.82327 8.94165 8.09742 6.73512C8.47312 6.48197 8.57249 5.97255 8.31934 5.59685C8.0646 5.22033 7.55513 5.12178 7.18107 5.37493C3.30038 7.98987 1.02614 12.8357 1.9724 17.9473C0.0708616 19.1104 -0.560397 21.5577 0.55162 23.487C0.559605 23.5015 0.568464 23.5151 0.576448 23.5295C1.71105 25.4411 4.16532 26.0961 6.09804 25.0203C6.11729 25.0099 6.13566 24.9986 6.15491 24.9882C6.15491 24.9882 6.15573 24.9874 6.1565 24.9874C7.0776 24.4549 9.87646 22.2991 12.0523 20.1836C10.3329 19.4155 9.12762 17.6963 9.12762 15.6945Z" fill="#4E5DE3"/>
</svg>
