<svg width="28" height="28" viewBox="0 0 28 28" fill="none" xmlns="http://www.w3.org/2000/svg">
<path fill-rule="evenodd" clip-rule="evenodd" d="M14 24.9174L25.8233 17.0351C26.4666 16.6062 27.3358 16.7801 27.7647 17.4234C28.163 18.0208 28.0415 18.813 27.5071 19.2665L27.3764 19.3649L14.7766 27.7649C14.3586 28.0435 13.8281 28.0745 13.3851 27.8578L13.2234 27.7649L0.623562 19.3649C-0.0197714 18.936 -0.193613 18.0668 0.235276 17.4234C0.63353 16.826 1.41145 16.6335 2.03563 16.9524L2.17671 17.0351L14 24.9174L25.8233 17.0351L14 24.9174ZM14.7766 0.23513L27.3764 8.63513C28.2077 9.18928 28.2077 10.4107 27.3764 10.9649L14.7766 19.3649C14.3063 19.6784 13.6937 19.6784 13.2234 19.3649L0.623562 10.9649C-0.207656 10.4107 -0.207656 9.18928 0.623562 8.63513L13.2234 0.23513C13.6937 -0.0783765 14.3063 -0.0783765 14.7766 0.23513ZM14 3.08259L3.92399 9.8L14 16.5174L24.076 9.8L14 3.08259Z" fill="#4E5DE3"/>
<path d="M2 9.5L14 1.5L25.5 9.5L14 17.5L2 9.5Z" fill="#4E5DE3"/>
</svg>
