<svg width="28" height="28" viewBox="0 0 28 28" fill="none" xmlns="http://www.w3.org/2000/svg">
<path d="M2.51289 7.49219H1.64062V5.85156C1.64062 5.39853 1.27334 5.03125 0.820312 5.03125C0.367281 5.03125 0 5.39853 0 5.85156V20.5625C0 21.0155 0.367281 21.3828 0.820312 21.3828C1.27334 21.3828 1.64062 21.0155 1.64062 20.5625V18.9219H2.51289C3.86985 18.9219 4.97383 17.8179 4.97383 16.4609V9.95312C4.97383 8.59616 3.86991 7.49219 2.51289 7.49219Z" fill="#4E5DE3"/>
<path d="M25.2441 22.6465C24.9241 22.3264 24.4043 22.3261 24.084 22.6465L22.9259 23.8047C21.9674 24.7631 21.9674 26.3227 22.9259 27.2811C23.8843 28.2396 25.4438 28.2396 26.4022 27.2811C27.3607 26.3227 27.3607 24.7631 26.4022 23.8047L25.2441 22.6465Z" fill="#4E5DE3"/>
<path d="M7.43482 4.15625H11.2684V5.85156H15.0938V4.15625H18.9247C19.3777 4.15625 19.745 3.78897 19.745 3.33594C19.745 2.88291 19.3777 2.51562 18.9247 2.51562H15.0938V1.9127C15.0938 0.857992 14.2358 0 13.1811 0C12.1264 0 11.2684 0.857992 11.2684 1.9127V2.51562H7.43482C6.98178 2.51562 6.6145 2.88291 6.6145 3.33594C6.6145 3.78897 6.98178 4.15625 7.43482 4.15625Z" fill="#4E5DE3"/>
<path d="M20.6171 9.89844H17.2785V7.49219H9.07534V9.89844H6.61304C6.61566 10.0975 6.61386 13.2016 6.6144 16.4609H7.5057C10.0497 20.8225 16.3087 20.8304 18.8552 16.4609H20.6171C21.0695 16.4609 21.4375 16.8289 21.4375 17.2813V20.5598C21.4375 21.0128 21.8047 21.3801 22.2578 21.3801H27.1796C27.6327 21.3801 28 21.0128 28 20.5598V17.2813C28 13.2104 24.688 9.89844 20.6171 9.89844Z" fill="#4E5DE3"/>
</svg>
