<svg width="20" height="20" viewBox="0 0 20 20" fill="none" xmlns="http://www.w3.org/2000/svg">
<path fill-rule="evenodd" clip-rule="evenodd" d="M9 0C10.6569 0 12 1.34315 12 3L12.0001 4.17067C12.3128 4.06014 12.6494 4 13 4H17C18.6569 4 20 5.34315 20 7V17C20 18.6569 18.6569 20 17 20H3C1.34315 20 0 18.6569 0 17V3C0 1.34315 1.34315 0 3 0H9ZM9 2H3C2.44772 2 2 2.44772 2 3V17C2 17.5523 2.44772 18 3 18H10V3C10 2.44772 9.55228 2 9 2ZM17 6H13C12.4477 6 12 6.44772 12 7V18H17C17.5523 18 18 17.5523 18 17V7C18 6.44772 17.5523 6 17 6ZM7 12C7.55228 12 8 12.4477 8 13C8 13.5523 7.55228 14 7 14H5C4.44772 14 4 13.5523 4 13C4 12.4477 4.44772 12 5 12H7ZM16 12C16.5523 12 17 12.4477 17 13C17 13.5523 16.5523 14 16 14H14C13.4477 14 13 13.5523 13 13C13 12.4477 13.4477 12 14 12H16ZM7 8C7.55228 8 8 8.44772 8 9C8 9.55228 7.55228 10 7 10H5C4.44772 10 4 9.55228 4 9C4 8.44772 4.44772 8 5 8H7ZM16 8C16.5523 8 17 8.44772 17 9C17 9.55228 16.5523 10 16 10H14C13.4477 10 13 9.55228 13 9C13 8.44772 13.4477 8 14 8H16ZM7 4C7.55228 4 8 4.44772 8 5C8 5.55228 7.55228 6 7 6H5C4.44772 6 4 5.55228 4 5C4 4.44772 4.44772 4 5 4H7Z" fill="#4E5DE3"/>
</svg>
